<svg width="512" height="512" viewBox="0 0 512 512" fill="none" xmlns="http://www.w3.org/2000/svg">
<g clip-path="url(#clip0_1_2)">
<mask id="mask0_1_2" style="mask-type:luminance" maskUnits="userSpaceOnUse" x="0" y="0" width="512" height="512">
<path d="M512 0H0V512H512V0Z" fill="white"/>
</mask>
<g mask="url(#mask0_1_2)">
<path d="M0 0H512V512H0V0Z" fill="#222D3A"/>
<path d="M330.085 110.955C311.299 90.672 285.059 79.5024 256.097 79.5024C226.981 79.5024 200.655 90.6044 181.955 110.762C163.053 131.141 153.843 158.838 156.005 188.746C160.292 247.751 205.192 295.75 256.097 295.75C307.003 295.75 351.826 247.76 356.18 188.765C358.371 159.128 349.103 131.489 330.085 110.955Z" fill="#B3BAC0"/>
<path d="M53.9275 511.997H458.333C459 503 458.206 483.499 456.333 473.141C448.185 427.941 422.757 389.972 382.789 363.327C347.282 339.675 302.305 326.642 256.13 326.642C209.956 326.642 164.978 339.666 129.471 363.327C89.5038 389.982 64.0754 427.951 55.9275 473.15C54.0546 483.509 53.5001 504.5 53.9275 511.997Z" fill="#B3BAC0"/>
</g>
<path d="M308 93C285 79 257.5 79 257.5 79V243C257.5 243 297 269.5 314 272C331 274.5 339 272 361 268C383 264 396.5 259.5 396.5 259.5C396.5 259.5 372 235 363.5 217C355 199 356 169 354.5 159.5C353 150 345.818 131.5 340 123.5C334.182 115.5 331 107 308 93Z" fill="#B3BAC0"/>
<path d="M206.5 93C229.5 79 257 79 257 79V243C257 243 217.5 269.5 200.5 272C183.5 274.5 175.5 272 153.5 268C131.5 264 118 259.5 118 259.5C118 259.5 142.5 235 151 217C159.5 199 158.5 169 160 159.5C161.5 150 168.682 131.5 174.5 123.5C180.318 115.5 183.5 107 206.5 93Z" fill="#B3BAC0"/>
</g>
<defs>
<clipPath id="clip0_1_2">
<rect width="512" height="512" fill="white"/>
</clipPath>
</defs>
</svg>
